<?xml version="1.0" encoding="UTF-8" standalone="no"?>
<!-- Created with Inkscape (http://www.inkscape.org/) -->

<svg
   width="43.571682mm"
   height="45.127815mm"
   viewBox="0 0 43.571682 45.127815"
   version="1.1"
   id="svg1"
   inkscape:version="1.3 (0e150ed6c4, 2023-07-21)"
   sodipodi:docname="embleme_white.svg"
   xmlns:inkscape="http://www.inkscape.org/namespaces/inkscape"
   xmlns:sodipodi="http://sodipodi.sourceforge.net/DTD/sodipodi-0.dtd"
   xmlns="http://www.w3.org/2000/svg"
   xmlns:svg="http://www.w3.org/2000/svg">
  <sodipodi:namedview
     id="namedview1"
     pagecolor="#505050"
     bordercolor="#eeeeee"
     borderopacity="1"
     inkscape:showpageshadow="0"
     inkscape:pageopacity="0"
     inkscape:pagecheckerboard="0"
     inkscape:deskcolor="#505050"
     inkscape:document-units="mm"
     inkscape:zoom="2.7666445"
     inkscape:cx="82.410298"
     inkscape:cy="85.121163"
     inkscape:window-width="1366"
     inkscape:window-height="745"
     inkscape:window-x="-8"
     inkscape:window-y="-8"
     inkscape:window-maximized="1"
     inkscape:current-layer="layer1" />
  <defs
     id="defs1" />
  <g
     inkscape:label="Layer 1"
     inkscape:groupmode="layer"
     id="layer1"
     transform="translate(-214.57708,-109.00834)">
    <rect
       style="fill:#ffffff;stroke:none;stroke-width:0.220551;fill-opacity:1"
       id="rect1"
       width="43.571682"
       height="45.127815"
       x="214.57709"
       y="109.00834"
       inkscape:export-filename="..\Pictures\nonvizor\emblème.png"
       inkscape:export-xdpi="96"
       inkscape:export-ydpi="96" />
    <g
       id="g1">
      <g
         id="g2"
         transform="translate(174.34724,-68.632227)">
        <path
           id="path30"
           style="fill:#8c28db;fill-opacity:1;stroke:none;stroke-width:0.266622"
           d="m 67.686749,188.37697 c -2.636267,1.4014 -0.421536,5.41114 2.109527,4.13286 2.743459,-1.38556 0.647411,-5.59841 -2.109527,-4.13286 m -0.544971,5.18618 c -4.317908,0.67273 -5.922947,5.74721 -10.131661,6.4944 -1.237011,0.21961 -4.960459,-1.12412 -5.580973,-0.13434 -0.585449,0.93385 0.336015,2.5981 0.848214,3.37722 1.841048,2.80047 4.771821,5.1058 7.132363,7.46543 0.749362,0.74908 1.991142,2.50472 3.19947,2.38973 1.280472,-0.12185 2.618887,-2.07577 3.466096,-2.92298 2.711382,-2.71137 7.325917,-5.82246 7.877506,-9.86503 0.509555,-3.73451 -3.031948,-7.39321 -6.811015,-6.80443 m -13.864379,7.8709 c 3.331332,0.93615 5.920008,0.0224 8.531924,-2.21301 2.117092,-1.81189 3.566376,-4.19446 6.665569,-3.89133 2.919909,0.28558 4.470131,3.46825 3.467534,6.10434 -0.999377,2.6276 -3.930871,4.7293 -5.867139,6.66556 -0.795954,0.79596 -2.230626,2.87771 -3.466096,2.87771 -1.782348,0 -4.662395,-4.07401 -5.865698,-5.27731 -1.288473,-1.28848 -2.866331,-2.50173 -3.466094,-4.26596" />
      </g>
      <g
         id="g32"
         transform="matrix(1.0077077,0,0,1.0077077,178.48402,-17.470765)"
         style="fill:#77db28;fill-opacity:1">
        <path
           style="fill:#77db28;fill-opacity:1;stroke:none;stroke-width:0.264583"
           d="m 57.056182,147.2787 0.264583,0.26459 z"
           id="path29" />
        <path
           style="fill:#77db28;fill-opacity:1;stroke:none;stroke-width:0.264583"
           d="m 54.145765,147.2787 0.264583,0.26459 z"
           id="path28" />
        <path
           style="fill:#77db28;fill-opacity:1;stroke:none;stroke-width:0.264583"
           d="m 53.881182,147.2787 0.264583,0.26459 z"
           id="path27" />
        <path
           style="fill:#77db28;fill-opacity:1;stroke:none;stroke-width:0.264583"
           d="m 48.854098,147.2787 0.264584,0.26459 z"
           id="path26" />
        <path
           style="fill:#77db28;fill-opacity:1;stroke:none;stroke-width:0.264583"
           d="m 48.589515,147.2787 0.264583,0.26459 z"
           id="path25" />
        <path
           style="fill:#77db28;fill-opacity:1;stroke:none;stroke-width:0.264583"
           d="m 47.002015,147.2787 0.264583,0.26459 z"
           id="path24" />
        <path
           style="fill:#77db28;fill-opacity:1;stroke:none;stroke-width:0.264583"
           d="m 54.674932,147.01412 0.264583,0.26458 z"
           id="path23" />
        <path
           style="fill:#77db28;fill-opacity:1;stroke:none;stroke-width:0.264583"
           d="m 54.410348,147.01412 0.264584,0.26458 z"
           id="path22" />
        <path
           style="fill:#77db28;fill-opacity:1;stroke:none;stroke-width:0.264583"
           d="m 48.324932,147.01412 0.264583,0.26458 -0.264583,-0.26458"
           id="path21" />
        <path
           style="fill:#77db28;fill-opacity:1;stroke:none;stroke-width:0.264583"
           d="m 48.060348,147.01412 0.264584,0.26458 z"
           id="path20" />
        <path
           style="fill:#77db28;fill-opacity:1;stroke:none;stroke-width:0.264583"
           d="m 47.70757,147.10232 0.17639,0.0882 z"
           id="path19" />
        <path
           style="fill:#77db28;fill-opacity:1;stroke:none;stroke-width:0.264583"
           d="m 55.468682,146.48495 0.264583,0.26459 z"
           id="path18" />
        <path
           style="fill:#77db28;fill-opacity:1;stroke:none;stroke-width:0.264583"
           d="m 56.262432,145.6912 0.264583,0.26459 z"
           id="path17" />
        <path
           style="fill:#77db28;fill-opacity:1;stroke:none;stroke-width:0.264583"
           d="m 55.204098,143.30995 v 0.52917 c -2.006556,1.20682 -3.515477,1.9217 -5.820833,1.05833 1.483368,-1.99634 3.560098,-2.41144 5.820833,-1.5875 z"
           id="path16" />
        <path
           style="fill:#77db28;fill-opacity:1;stroke:none;stroke-width:0.264583"
           d="m 51.764515,141.33334 c -1.470707,0.33978 -4.835097,2.28963 -4.062049,4.25456 0.607026,1.54294 3.818362,1.58656 5.120382,1.28617 1.328399,-0.30647 4.459892,-1.86897 4.254158,-3.56003 -0.248484,-2.04244 -3.829298,-2.32337 -5.312491,-1.9807 z"
           id="path15" />
        <path
           style="fill:#77db28;fill-opacity:1;stroke:none;stroke-width:0.264583"
           d="m 50.470384,136.17355 c -2.481336,1.39551 -0.200121,5.59753 2.33797,3.99795 2.587502,-1.63073 0.256701,-5.45719 -2.33797,-3.99795 z"
           id="path7" />
      </g>
    </g>
  </g>
</svg>
