<?xml version="1.0" encoding="UTF-8" standalone="no"?>
<!-- Created with Inkscape (http://www.inkscape.org/) -->

<svg
   width="141.08926mm"
   height="45.127815mm"
   viewBox="0 0 141.08927 45.127815"
   version="1.1"
   id="svg1"
   inkscape:version="1.3 (0e150ed6c4, 2023-07-21)"
   sodipodi:docname="logo nonvizor.svg"
   xmlns:inkscape="http://www.inkscape.org/namespaces/inkscape"
   xmlns:sodipodi="http://sodipodi.sourceforge.net/DTD/sodipodi-0.dtd"
   xmlns="http://www.w3.org/2000/svg"
   xmlns:svg="http://www.w3.org/2000/svg">
  <sodipodi:namedview
     id="namedview1"
     pagecolor="#505050"
     bordercolor="#eeeeee"
     borderopacity="1"
     inkscape:showpageshadow="0"
     inkscape:pageopacity="0"
     inkscape:pagecheckerboard="0"
     inkscape:deskcolor="#505050"
     inkscape:document-units="mm"
     showgrid="true"
     inkscape:zoom="1.0201579"
     inkscape:cx="312.69669"
     inkscape:cy="25.976371"
     inkscape:window-width="1366"
     inkscape:window-height="745"
     inkscape:window-x="-8"
     inkscape:window-y="-8"
     inkscape:window-maximized="1"
     inkscape:current-layer="layer1">
    <inkscape:grid
       id="grid1"
       units="mm"
       originx="-152.04979"
       originy="-671.39749"
       spacingx="0.99999998"
       spacingy="1"
       empcolor="#0099e5"
       empopacity="0.30196078"
       color="#0099e5"
       opacity="0.14901961"
       empspacing="5"
       dotted="false"
       gridanglex="30"
       gridanglez="30"
       visible="true" />
  </sodipodi:namedview>
  <defs
     id="defs1" />
  <g
     inkscape:label="Layer 1"
     inkscape:groupmode="layer"
     id="layer1"
     transform="translate(-40.229843,-177.64056)">
    <g
       id="g2"
       inkscape:export-filename="..\Pictures\nonvizor\logo.png"
       inkscape:export-xdpi="96"
       inkscape:export-ydpi="96">
      <g
         id="g1"
         transform="matrix(1.0077077,0,0,1.0077077,4.0403795,50.971738)">
        <g
           id="g15"
           style="fill:#8c28db;fill-opacity:1;stroke:none;stroke-opacity:1"
           transform="translate(2.6458334)">
          <path
             id="path3"
             style="fill:#8c28db;fill-opacity:1;stroke:none;stroke-width:0.264583;stroke-opacity:1"
             d="m 89.606252,142.02687 c -7.92829,1.48553 -6.287826,15.27168 1.852083,13.77528 8.038108,-1.47769 6.385054,-15.31868 -1.852083,-13.77528 m 54.504168,0.0163 c -7.94271,1.8105 -5.78789,15.5749 2.38125,13.70281 7.88096,-1.80606 5.77986,-15.56309 -2.38125,-13.70281 m -72.231252,0.12454 v 13.49375 h 1.322917 v -10.84792 h 0.264583 c 1.09016,2.87619 3.407664,5.64084 5.115277,8.20208 0.860351,1.29045 1.424525,2.5178 3.086807,2.64584 v -13.49375 h -1.322917 v 10.84791 c -1.76993,-2.62362 -3.448195,-5.30458 -5.203473,-7.9375 -0.899814,-1.34971 -1.509805,-2.77535 -3.263194,-2.91041 m 27.516667,0 v 13.49375 h 1.322915 v -10.84792 h 0.26458 c 1.36951,2.89561 3.4296,5.54145 5.20348,8.20208 0.83292,1.24932 1.38552,2.51841 2.99861,2.64584 v -13.49375 h -1.32292 v 10.58333 c -1.87273,-2.43636 -3.44019,-5.1027 -5.11813,-7.67292 -0.90812,-1.39102 -1.56074,-2.7745 -3.348535,-2.91041 m 11.906245,0 4.76251,13.49375 c 2.01275,-0.066 2.17071,-1.51076 2.79833,-3.175 1.23497,-3.27469 3.03979,-6.85278 3.55167,-10.31875 h -1.32292 l -3.96875,11.64166 h -0.26458 l -3.96876,-11.64166 h -1.5875 m 13.22917,0 v 13.49375 h 1.32292 v -13.49375 h -1.32292 m 3.96875,0 c 0.373,2.23502 5.09183,1.32291 6.87917,1.32291 -2.21246,3.04313 -6.6274,8.38149 -6.87917,12.17084 h 8.99584 c -0.37645,-2.25573 -5.33123,-1.32292 -7.14375,-1.32292 1.85872,-3.97641 6.04482,-7.84395 6.87916,-12.17083 H 128.5 m 25.66459,0 v 13.49375 h 1.32291 v -5.82084 c 0.90462,1e-4 2.0519,-0.17417 2.81018,0.42424 2.0004,1.57864 1.85796,5.29697 4.86274,5.3966 l -3.175,-5.82084 c 3.061,-1.13866 4.33669,-5.22943 1.05731,-7.12006 -1.86943,-1.07778 -4.79578,-0.55285 -6.87814,-0.55285 m -64.558338,1.16164 c 6.561851,-1.41896 8.094924,9.72094 1.852083,11.13353 -6.452621,1.46005 -8.008345,-9.80228 -1.852083,-11.13353 m 54.768748,-0.0161 c 6.69921,-1.19881 7.99242,10.15503 1.5875,11.20192 -6.38996,1.04445 -7.69515,-10.10897 -1.5875,-11.20192 m 11.1125,5.46908 v -5.29167 c 1.41434,0 3.46795,-0.37232 4.75087,0.31195 1.62332,0.86583 1.7967,3.37537 0.24743,4.39012 -1.39504,0.91374 -3.41329,0.5896 -4.9983,0.5896 z" />
        </g>
        <path
           id="path30"
           style="fill:#8c28db;fill-opacity:1;stroke:none;stroke-width:0.264583"
           d="m 63.159555,136.35425 c -2.616103,1.39069 -0.418312,5.36976 2.093391,4.10125 2.722475,-1.37496 0.642459,-5.55559 -2.093391,-4.10125 m -0.540803,5.14652 c -4.284881,0.66758 -5.877644,5.70325 -10.054167,6.44472 -1.227549,0.21793 -4.922517,-1.11552 -5.538285,-0.13331 -0.580971,0.92671 0.333445,2.57823 0.841726,3.35139 1.826966,2.77905 4.735323,5.06675 7.077809,7.40833 0.743631,0.74335 1.975913,2.48556 3.174999,2.37145 1.270678,-0.12092 2.598855,-2.05989 3.439584,-2.90062 2.690644,-2.69064 7.269883,-5.77793 7.817253,-9.78958 0.505658,-3.70594 -3.008757,-7.33666 -6.758919,-6.75238 m -13.758334,7.81069 c 3.305852,0.92899 5.874727,0.0222 8.466666,-2.19608 2.100898,-1.79803 3.539097,-4.16238 6.614585,-3.86157 2.897576,0.2834 4.43594,3.44173 3.441012,6.05765 -0.991733,2.60751 -3.900805,4.69313 -5.822263,6.61458 -0.789866,0.78987 -2.213564,2.8557 -3.439584,2.8557 -1.768716,0 -4.626734,-4.04285 -5.820833,-5.23695 -1.278618,-1.27862 -2.844407,-2.48259 -3.439583,-4.23333" />
        <g
           id="g32"
           transform="translate(0.09565841,0.18827263)"
           style="fill:#77db28;fill-opacity:1">
          <path
             style="fill:#77db28;fill-opacity:1;stroke:none;stroke-width:0.264583"
             d="m 57.056182,147.2787 0.264583,0.26459 z"
             id="path29" />
          <path
             style="fill:#77db28;fill-opacity:1;stroke:none;stroke-width:0.264583"
             d="m 54.145765,147.2787 0.264583,0.26459 z"
             id="path28" />
          <path
             style="fill:#77db28;fill-opacity:1;stroke:none;stroke-width:0.264583"
             d="m 53.881182,147.2787 0.264583,0.26459 z"
             id="path27" />
          <path
             style="fill:#77db28;fill-opacity:1;stroke:none;stroke-width:0.264583"
             d="m 48.854098,147.2787 0.264584,0.26459 z"
             id="path26" />
          <path
             style="fill:#77db28;fill-opacity:1;stroke:none;stroke-width:0.264583"
             d="m 48.589515,147.2787 0.264583,0.26459 z"
             id="path25" />
          <path
             style="fill:#77db28;fill-opacity:1;stroke:none;stroke-width:0.264583"
             d="m 47.002015,147.2787 0.264583,0.26459 z"
             id="path24" />
          <path
             style="fill:#77db28;fill-opacity:1;stroke:none;stroke-width:0.264583"
             d="m 54.674932,147.01412 0.264583,0.26458 z"
             id="path23" />
          <path
             style="fill:#77db28;fill-opacity:1;stroke:none;stroke-width:0.264583"
             d="m 54.410348,147.01412 0.264584,0.26458 z"
             id="path22" />
          <path
             style="fill:#77db28;fill-opacity:1;stroke:none;stroke-width:0.264583"
             d="m 48.324932,147.01412 0.264583,0.26458 -0.264583,-0.26458"
             id="path21" />
          <path
             style="fill:#77db28;fill-opacity:1;stroke:none;stroke-width:0.264583"
             d="m 48.060348,147.01412 0.264584,0.26458 z"
             id="path20" />
          <path
             style="fill:#77db28;fill-opacity:1;stroke:none;stroke-width:0.264583"
             d="m 47.70757,147.10232 0.17639,0.0882 z"
             id="path19" />
          <path
             style="fill:#77db28;fill-opacity:1;stroke:none;stroke-width:0.264583"
             d="m 55.468682,146.48495 0.264583,0.26459 z"
             id="path18" />
          <path
             style="fill:#77db28;fill-opacity:1;stroke:none;stroke-width:0.264583"
             d="m 56.262432,145.6912 0.264583,0.26459 z"
             id="path17" />
          <path
             style="fill:#77db28;fill-opacity:1;stroke:none;stroke-width:0.264583"
             d="m 55.204098,143.30995 v 0.52917 c -2.006556,1.20682 -3.515477,1.9217 -5.820833,1.05833 1.483368,-1.99634 3.560098,-2.41144 5.820833,-1.5875 z"
             id="path16" />
          <path
             style="fill:#77db28;fill-opacity:1;stroke:none;stroke-width:0.264583"
             d="m 51.764515,141.33334 c -1.470707,0.33978 -4.835097,2.28963 -4.062049,4.25456 0.607026,1.54294 3.818362,1.58656 5.120382,1.28617 1.328399,-0.30647 4.459892,-1.86897 4.254158,-3.56003 -0.248484,-2.04244 -3.829298,-2.32337 -5.312491,-1.9807 z"
             id="path15" />
          <path
             style="fill:#77db28;fill-opacity:1;stroke:none;stroke-width:0.264583"
             d="m 50.470384,136.17355 c -2.481336,1.39551 -0.200121,5.59753 2.33797,3.99795 2.587502,-1.63073 0.256701,-5.45719 -2.33797,-3.99795 z"
             id="path7" />
        </g>
      </g>
      <rect
         style="fill:none;stroke:none;stroke-width:0.396875"
         id="rect1"
         width="141.08926"
         height="45.127815"
         x="40.229843"
         y="177.64056" />
    </g>
  </g>
</svg>
